<svg xmlns="http://www.w3.org/2000/svg" fill="none">
    <symbol id="icon-home" viewBox="0 0 24 24" fill="none">
        <path
            d="M20.0383 6.81994L14.2783 2.78994C12.7083 1.68994 10.2983 1.74994 8.78828 2.91994L3.77828 6.82994C2.77828 7.60994 1.98828 9.20994 1.98828 10.4699V17.3699C1.98828 19.9199 4.05828 21.9999 6.60828 21.9999H17.3883C19.9383 21.9999 22.0083 19.9299 22.0083 17.3799V10.5999C22.0083 9.24994 21.1383 7.58994 20.0383 6.81994ZM12.7483 17.9999C12.7483 18.4099 12.4083 18.7499 11.9983 18.7499C11.5883 18.7499 11.2483 18.4099 11.2483 17.9999V14.9999C11.2483 14.5899 11.5883 14.2499 11.9983 14.2499C12.4083 14.2499 12.7483 14.5899 12.7483 14.9999V17.9999Z"
            fill="currentColor" />
    </symbol>
    <symbol id="icon-tasks" viewBox="0 0 24 24" fill="none">
        <path
            d="M12.6761 19.957C12.9508 20.0209 12.976 20.3807 12.7084 20.4699L11.1284 20.9899C7.15839 22.2699 5.06839 21.1999 3.77839 17.2299L2.49839 13.2799C1.21839 9.30992 2.27839 7.20992 6.24839 5.92992L6.77238 5.75639C7.17525 5.62297 7.56731 6.02703 7.45292 6.43571C7.39622 6.63828 7.34167 6.84968 7.28839 7.06992L6.30839 11.2599C5.20839 15.9699 6.81839 18.5699 11.5284 19.6899L12.6761 19.957Z"
            fill="currentColor" />
        <path
            d="M17.1702 3.21001L15.5002 2.82001C12.1602 2.03001 10.1702 2.68001 9.00018 5.10001C8.70018 5.71001 8.46018 6.45001 8.26018 7.30001L7.28018 11.49C6.30018 15.67 7.59018 17.73 11.7602 18.72L13.4402 19.12C14.0202 19.26 14.5602 19.35 15.0602 19.39C18.1802 19.69 19.8402 18.23 20.6802 14.62L21.6602 10.44C22.6402 6.26001 21.3602 4.19001 17.1702 3.21001ZM15.2902 13.33C15.2002 13.67 14.9002 13.89 14.5602 13.89C14.5002 13.89 14.4402 13.88 14.3702 13.87L11.4602 13.13C11.0602 13.03 10.8202 12.62 10.9202 12.22C11.0202 11.82 11.4302 11.58 11.8302 11.68L14.7402 12.42C15.1502 12.52 15.3902 12.93 15.2902 13.33ZM18.2202 9.95001C18.1302 10.29 17.8302 10.51 17.4902 10.51C17.4302 10.51 17.3702 10.5 17.3002 10.49L12.4502 9.26001C12.0502 9.16001 11.8102 8.75001 11.9102 8.35001C12.0102 7.95001 12.4202 7.71001 12.8202 7.81001L17.6702 9.04001C18.0802 9.13001 18.3202 9.54001 18.2202 9.95001Z"
            fill="currentColor" />
    </symbol>
    <symbol id="icon-menu" viewBox="0 0 24 24" fill="none">
        <path
            d="M7.24 2H5.34C3.15 2 2 3.15 2 5.33V7.23C2 9.41 3.15 10.56 5.33 10.56H7.23C9.41 10.56 10.56 9.41 10.56 7.23V5.33C10.57 3.15 9.42 2 7.24 2Z"
            fill="currentColor" />
        <path
            d="M18.6714 2H16.7714C14.5914 2 13.4414 3.15 13.4414 5.33V7.23C13.4414 9.41 14.5914 10.56 16.7714 10.56H18.6714C20.8514 10.56 22.0014 9.41 22.0014 7.23V5.33C22.0014 3.15 20.8514 2 18.6714 2Z"
            fill="currentColor" />
        <path
            d="M18.6714 13.4299H16.7714C14.5914 13.4299 13.4414 14.5799 13.4414 16.7599V18.6599C13.4414 20.8399 14.5914 21.9899 16.7714 21.9899H18.6714C20.8514 21.9899 22.0014 20.8399 22.0014 18.6599V16.7599C22.0014 14.5799 20.8514 13.4299 18.6714 13.4299Z"
            fill="currentColor" />
        <path
            d="M7.24 13.4299H5.34C3.15 13.4299 2 14.5799 2 16.7599V18.6599C2 20.8499 3.15 21.9999 5.33 21.9999H7.23C9.41 21.9999 10.56 20.8499 10.56 18.6699V16.7699C10.57 14.5799 9.42 13.4299 7.24 13.4299Z"
            fill="currentColor" />
    </symbol>
    <symbol id="icon-socials" viewBox="0 0 16 16" fill="none">
        <path
            d="M12.3133 11.2202L12.5733 13.3268C12.6399 13.8802 12.0466 14.2668 11.5733 13.9802L9.2666 12.6068C9.1066 12.5135 9.0666 12.3135 9.15326 12.1535C9.4866 11.5402 9.6666 10.8468 9.6666 10.1535C9.6666 7.7135 7.57326 5.72683 4.99993 5.72683C4.47326 5.72683 3.95993 5.80683 3.47993 5.96683C3.23326 6.04683 2.99326 5.82016 3.05326 5.56683C3.65993 3.14016 5.99326 1.3335 8.77993 1.3335C12.0333 1.3335 14.6666 3.7935 14.6666 6.82683C14.6666 8.62683 13.7399 10.2202 12.3133 11.2202Z"
            fill="currentColor" />
        <path
            d="M8.66683 10.1532C8.66683 10.9466 8.3735 11.6799 7.88016 12.2599C7.22016 13.0599 6.1735 13.5732 5.00016 13.5732L3.26016 14.6066C2.96683 14.7866 2.5935 14.5399 2.6335 14.1999L2.80016 12.8866C1.90683 12.2666 1.3335 11.2732 1.3335 10.1532C1.3335 8.9799 1.96016 7.94656 2.92016 7.33323C3.5135 6.94656 4.22683 6.72656 5.00016 6.72656C7.02683 6.72656 8.66683 8.2599 8.66683 10.1532Z"
            fill="currentColor" />
    </symbol>
    <symbol id="icon-donate" viewBox="0 0 16 16" fill="none">
        <path
            d="M14.6668 14.1665C14.6668 14.4398 14.4402 14.6665 14.1668 14.6665H1.8335C1.56016 14.6665 1.3335 14.4398 1.3335 14.1665C1.3335 13.8932 1.56016 13.6665 1.8335 13.6665H14.1668C14.4402 13.6665 14.6668 13.8932 14.6668 14.1665Z"
            fill="currentColor" />
        <path
            d="M10.2601 3.01318L3.10012 10.1732C2.82679 10.4465 2.38679 10.4465 2.12012 10.1732H2.11346C1.18679 9.23984 1.18679 7.73318 2.11346 6.80651L6.88012 2.03984C7.81346 1.10651 9.32012 1.10651 10.2535 2.03984C10.5268 2.29984 10.5268 2.74651 10.2601 3.01318Z"
            fill="currentColor" />
        <path
            d="M13.8798 5.66021L11.8465 3.62687C11.5731 3.35354 11.1331 3.35354 10.8665 3.62687L3.70646 10.7869C3.43313 11.0535 3.43313 11.4935 3.70646 11.7669L5.7398 13.8069C6.67313 14.7335 8.1798 14.7335 9.11313 13.8069L13.8731 9.04021C14.8198 8.10688 14.8198 6.59354 13.8798 5.66021ZM8.50646 11.6802L7.6998 12.4935C7.53313 12.6602 7.2598 12.6602 7.08646 12.4935C6.9198 12.3269 6.9198 12.0535 7.08646 11.8802L7.8998 11.0669C8.0598 10.9069 8.3398 10.9069 8.50646 11.0669C8.67313 11.2335 8.67313 11.5202 8.50646 11.6802ZM11.1531 9.03354L9.52646 10.6669C9.3598 10.8269 9.08646 10.8269 8.91313 10.6669C8.74646 10.5002 8.74646 10.2269 8.91313 10.0535L10.5465 8.42021C10.7065 8.26021 10.9865 8.26021 11.1531 8.42021C11.3198 8.59354 11.3198 8.86688 11.1531 9.03354Z"
            fill="currentColor" />
    </symbol>
    <symbol id="icon-arrowNext" viewBox="0 0 24 24" fill="none" xmlns="http://www.w3.org/2000/svg">
        <path
            d="M14.4301 18.8201C14.2401 18.8201 14.0501 18.7501 13.9001 18.6001C13.6101 18.3101 13.6101 17.8301 13.9001 17.5401L19.4401 12.0001L13.9001 6.46012C13.6101 6.17012 13.6101 5.69012 13.9001 5.40012C14.1901 5.11012 14.6701 5.11012 14.9601 5.40012L21.0301 11.4701C21.3201 11.7601 21.3201 12.2401 21.0301 12.5301L14.9601 18.6001C14.8101 18.7501 14.6201 18.8201 14.4301 18.8201Z"
            fill="currentColor" />
        <path
            d="M20.33 12.75H3.5C3.09 12.75 2.75 12.41 2.75 12C2.75 11.59 3.09 11.25 3.5 11.25H20.33C20.74 11.25 21.08 11.59 21.08 12C21.08 12.41 20.74 12.75 20.33 12.75Z"
            fill="currentColor" />
    </symbol>
    <symbol id="icon-game" viewBox="0 0 24 24" fill="none">
        <path
            d="M16.65 5.71973H7.35C4.4 5.71973 2 8.11973 2 11.0697V16.6497C2 19.5997 4.4 21.9997 7.35 21.9997H16.65C19.6 21.9997 22 19.5997 22 16.6497V11.0697C22 8.11973 19.6 5.71973 16.65 5.71973ZM14.5 12.0197C14.5 11.4697 14.95 11.0197 15.5 11.0197C16.05 11.0197 16.5 11.4697 16.5 12.0197C16.5 12.5697 16.05 13.0297 15.5 13.0297C14.95 13.0297 14.5 12.5897 14.5 12.0397V12.0197ZM10.13 16.0697C9.98 16.2197 9.79 16.2897 9.6 16.2897C9.41 16.2897 9.22 16.2197 9.07 16.0697L8.04 15.0397L7.05 16.0297C6.9 16.1797 6.71 16.2497 6.52 16.2497C6.33 16.2497 6.14 16.1797 5.99 16.0297C5.7 15.7397 5.7 15.2597 5.99 14.9697L6.98 13.9797L6.02 13.0197C5.73 12.7297 5.73 12.2497 6.02 11.9597C6.31 11.6697 6.79 11.6697 7.08 11.9597L8.04 12.9197L9.03 11.9297C9.32 11.6397 9.8 11.6397 10.09 11.9297C10.38 12.2197 10.38 12.6997 10.09 12.9897L9.1 13.9797L10.13 15.0097C10.42 15.2997 10.42 15.7797 10.13 16.0697ZM13.54 14.9997C12.99 14.9997 12.53 14.5497 12.53 13.9997C12.53 13.4497 12.97 12.9997 13.52 12.9997H13.54C14.09 12.9997 14.54 13.4497 14.54 13.9997C14.54 14.5497 14.1 14.9997 13.54 14.9997ZM15.5 16.9697C14.95 16.9697 14.5 16.5297 14.5 15.9797V15.9597C14.5 15.4097 14.95 14.9597 15.5 14.9597C16.05 14.9597 16.5 15.4097 16.5 15.9597C16.5 16.5097 16.06 16.9697 15.5 16.9697ZM17.48 14.9997C16.93 14.9997 16.47 14.5497 16.47 13.9997C16.47 13.4497 16.91 12.9997 17.46 12.9997H17.48C18.03 12.9997 18.48 13.4497 18.48 13.9997C18.48 14.5497 18.04 14.9997 17.48 14.9997Z"
            fill="currentColor" />
        <path
            d="M13.6399 2.71L13.6299 3.65C13.6199 4.53 12.8899 5.26 11.9999 5.26C11.8499 5.26 11.7599 5.36 11.7599 5.49C11.7599 5.62 11.8599 5.72 11.9899 5.72H10.3799C10.3699 5.65 10.3599 5.57 10.3599 5.49C10.3599 4.59 11.0899 3.86 11.9799 3.86C12.1299 3.86 12.2299 3.76 12.2299 3.63L12.2399 2.69C12.2499 2.31 12.5599 2 12.9399 2H12.9499C13.3399 2 13.6399 2.32 13.6399 2.71Z"
            fill="currentColor" />
    </symbol>
    <symbol id="icon-coins" viewBox="0 0 24 24" fill="none">
        <g clip-path="url(#clip0_802_78086)">
            <path
                d="M9 14C9 15.657 11.686 17 15 17C18.314 17 21 15.657 21 14C21 12.343 18.314 11 15 11C11.686 11 9 12.343 9 14Z"
                stroke="currentColor" stroke-width="2" stroke-linecap="round"
                stroke-linejoin="round" />
            <path d="M9 14V18C9 19.656 11.686 21 15 21C18.314 21 21 19.656 21 18V14"
                stroke="currentColor"
                stroke-width="2" stroke-linecap="round" stroke-linejoin="round" />
            <path
                d="M3 6C3 7.072 4.144 8.062 6 8.598C7.856 9.134 10.144 9.134 12 8.598C13.856 8.062 15 7.072 15 6C15 4.928 13.856 3.938 12 3.402C10.144 2.866 7.856 2.866 6 3.402C4.144 3.938 3 4.928 3 6Z"
                stroke="currentColor" stroke-width="2" stroke-linecap="round"
                stroke-linejoin="round" />
            <path d="M3 6V16C3 16.888 3.772 17.45 5 18" stroke="currentColor" stroke-width="2"
                stroke-linecap="round" stroke-linejoin="round" />
            <path d="M3 11C3 11.888 3.772 12.45 5 13" stroke="currentColor" stroke-width="2"
                stroke-linecap="round" stroke-linejoin="round" />
        </g>
        <defs>
            <clipPath id="clip0_802_78086">
                <rect width="24" height="24" fill="white" />
            </clipPath>
        </defs>
    </symbol>
</svg>