<svg xmlns="http://www.w3.org/2000/svg" fill="none">
    <symbol id="icon-home" viewBox="0 0 24 24" fill="none">
        <path
            d="M20.0383 6.81994L14.2783 2.78994C12.7083 1.68994 10.2983 1.74994 8.78828 2.91994L3.77828 6.82994C2.77828 7.60994 1.98828 9.20994 1.98828 10.4699V17.3699C1.98828 19.9199 4.05828 21.9999 6.60828 21.9999H17.3883C19.9383 21.9999 22.0083 19.9299 22.0083 17.3799V10.5999C22.0083 9.24994 21.1383 7.58994 20.0383 6.81994ZM12.7483 17.9999C12.7483 18.4099 12.4083 18.7499 11.9983 18.7499C11.5883 18.7499 11.2483 18.4099 11.2483 17.9999V14.9999C11.2483 14.5899 11.5883 14.2499 11.9983 14.2499C12.4083 14.2499 12.7483 14.5899 12.7483 14.9999V17.9999Z"
            fill="currentColor" />
    </symbol>
    <symbol id="icon-tasks" viewBox="0 0 24 24" fill="none">
        <path
            d="M12.6761 19.957C12.9508 20.0209 12.976 20.3807 12.7084 20.4699L11.1284 20.9899C7.15839 22.2699 5.06839 21.1999 3.77839 17.2299L2.49839 13.2799C1.21839 9.30992 2.27839 7.20992 6.24839 5.92992L6.77238 5.75639C7.17525 5.62297 7.56731 6.02703 7.45292 6.43571C7.39622 6.63828 7.34167 6.84968 7.28839 7.06992L6.30839 11.2599C5.20839 15.9699 6.81839 18.5699 11.5284 19.6899L12.6761 19.957Z"
            fill="currentColor" />
        <path
            d="M17.1702 3.21001L15.5002 2.82001C12.1602 2.03001 10.1702 2.68001 9.00018 5.10001C8.70018 5.71001 8.46018 6.45001 8.26018 7.30001L7.28018 11.49C6.30018 15.67 7.59018 17.73 11.7602 18.72L13.4402 19.12C14.0202 19.26 14.5602 19.35 15.0602 19.39C18.1802 19.69 19.8402 18.23 20.6802 14.62L21.6602 10.44C22.6402 6.26001 21.3602 4.19001 17.1702 3.21001ZM15.2902 13.33C15.2002 13.67 14.9002 13.89 14.5602 13.89C14.5002 13.89 14.4402 13.88 14.3702 13.87L11.4602 13.13C11.0602 13.03 10.8202 12.62 10.9202 12.22C11.0202 11.82 11.4302 11.58 11.8302 11.68L14.7402 12.42C15.1502 12.52 15.3902 12.93 15.2902 13.33ZM18.2202 9.95001C18.1302 10.29 17.8302 10.51 17.4902 10.51C17.4302 10.51 17.3702 10.5 17.3002 10.49L12.4502 9.26001C12.0502 9.16001 11.8102 8.75001 11.9102 8.35001C12.0102 7.95001 12.4202 7.71001 12.8202 7.81001L17.6702 9.04001C18.0802 9.13001 18.3202 9.54001 18.2202 9.95001Z"
            fill="currentColor" />
    </symbol>
    <symbol id="icon-menu" viewBox="0 0 24 24" fill="none">
        <path
            d="M7.24 2H5.34C3.15 2 2 3.15 2 5.33V7.23C2 9.41 3.15 10.56 5.33 10.56H7.23C9.41 10.56 10.56 9.41 10.56 7.23V5.33C10.57 3.15 9.42 2 7.24 2Z"
            fill="currentColor" />
        <path
            d="M18.6714 2H16.7714C14.5914 2 13.4414 3.15 13.4414 5.33V7.23C13.4414 9.41 14.5914 10.56 16.7714 10.56H18.6714C20.8514 10.56 22.0014 9.41 22.0014 7.23V5.33C22.0014 3.15 20.8514 2 18.6714 2Z"
            fill="currentColor" />
        <path
            d="M18.6714 13.4299H16.7714C14.5914 13.4299 13.4414 14.5799 13.4414 16.7599V18.6599C13.4414 20.8399 14.5914 21.9899 16.7714 21.9899H18.6714C20.8514 21.9899 22.0014 20.8399 22.0014 18.6599V16.7599C22.0014 14.5799 20.8514 13.4299 18.6714 13.4299Z"
            fill="currentColor" />
        <path
            d="M7.24 13.4299H5.34C3.15 13.4299 2 14.5799 2 16.7599V18.6599C2 20.8499 3.15 21.9999 5.33 21.9999H7.23C9.41 21.9999 10.56 20.8499 10.56 18.6699V16.7699C10.57 14.5799 9.42 13.4299 7.24 13.4299Z"
            fill="currentColor" />
    </symbol>
    <symbol id="icon-socials" viewBox="0 0 16 16" fill="none">
        <path
            d="M12.3133 11.2202L12.5733 13.3268C12.6399 13.8802 12.0466 14.2668 11.5733 13.9802L9.2666 12.6068C9.1066 12.5135 9.0666 12.3135 9.15326 12.1535C9.4866 11.5402 9.6666 10.8468 9.6666 10.1535C9.6666 7.7135 7.57326 5.72683 4.99993 5.72683C4.47326 5.72683 3.95993 5.80683 3.47993 5.96683C3.23326 6.04683 2.99326 5.82016 3.05326 5.56683C3.65993 3.14016 5.99326 1.3335 8.77993 1.3335C12.0333 1.3335 14.6666 3.7935 14.6666 6.82683C14.6666 8.62683 13.7399 10.2202 12.3133 11.2202Z"
            fill="currentColor" />
        <path
            d="M8.66683 10.1532C8.66683 10.9466 8.3735 11.6799 7.88016 12.2599C7.22016 13.0599 6.1735 13.5732 5.00016 13.5732L3.26016 14.6066C2.96683 14.7866 2.5935 14.5399 2.6335 14.1999L2.80016 12.8866C1.90683 12.2666 1.3335 11.2732 1.3335 10.1532C1.3335 8.9799 1.96016 7.94656 2.92016 7.33323C3.5135 6.94656 4.22683 6.72656 5.00016 6.72656C7.02683 6.72656 8.66683 8.2599 8.66683 10.1532Z"
            fill="currentColor" />
    </symbol>
    <symbol id="icon-donate" viewBox="0 0 16 16" fill="none">
        <path
            d="M14.6668 14.1665C14.6668 14.4398 14.4402 14.6665 14.1668 14.6665H1.8335C1.56016 14.6665 1.3335 14.4398 1.3335 14.1665C1.3335 13.8932 1.56016 13.6665 1.8335 13.6665H14.1668C14.4402 13.6665 14.6668 13.8932 14.6668 14.1665Z"
            fill="currentColor" />
        <path
            d="M10.2601 3.01318L3.10012 10.1732C2.82679 10.4465 2.38679 10.4465 2.12012 10.1732H2.11346C1.18679 9.23984 1.18679 7.73318 2.11346 6.80651L6.88012 2.03984C7.81346 1.10651 9.32012 1.10651 10.2535 2.03984C10.5268 2.29984 10.5268 2.74651 10.2601 3.01318Z"
            fill="currentColor" />
        <path
            d="M13.8798 5.66021L11.8465 3.62687C11.5731 3.35354 11.1331 3.35354 10.8665 3.62687L3.70646 10.7869C3.43313 11.0535 3.43313 11.4935 3.70646 11.7669L5.7398 13.8069C6.67313 14.7335 8.1798 14.7335 9.11313 13.8069L13.8731 9.04021C14.8198 8.10688 14.8198 6.59354 13.8798 5.66021ZM8.50646 11.6802L7.6998 12.4935C7.53313 12.6602 7.2598 12.6602 7.08646 12.4935C6.9198 12.3269 6.9198 12.0535 7.08646 11.8802L7.8998 11.0669C8.0598 10.9069 8.3398 10.9069 8.50646 11.0669C8.67313 11.2335 8.67313 11.5202 8.50646 11.6802ZM11.1531 9.03354L9.52646 10.6669C9.3598 10.8269 9.08646 10.8269 8.91313 10.6669C8.74646 10.5002 8.74646 10.2269 8.91313 10.0535L10.5465 8.42021C10.7065 8.26021 10.9865 8.26021 11.1531 8.42021C11.3198 8.59354 11.3198 8.86688 11.1531 9.03354Z"
            fill="currentColor" />
    </symbol>
</svg>